<?xml version="1.0" standalone="no"?>
<!DOCTYPE svg PUBLIC "-//W3C//DTD SVG 20010904//EN"
 "http://www.w3.org/TR/2001/REC-SVG-20010904/DTD/svg10.dtd">
<svg version="1.0" xmlns="http://www.w3.org/2000/svg"
 width="1024.000000pt" height="1024.000000pt" viewBox="0 0 1024.000000 1024.000000"
 preserveAspectRatio="xMidYMid meet">
<metadata>
Created by potrace 1.11, written by Peter Selinger 2001-2013
</metadata>
<g transform="translate(0.000000,1024.000000) scale(0.100000,-0.100000)"
fill="#000000" stroke="none">
<path d="M4165 6613 c-262 -32 -479 -108 -667 -233 -323 -216 -536 -533 -619
-920 -32 -149 -33 -419 -1 -566 124 -578 544 -1005 1109 -1128 120 -26 125
-17 8 15 -60 16 -116 30 -122 31 -7 1 -13 5 -13 10 0 4 254 8 564 8 505 0 564
-2 570 -16 6 -15 8 -62 4 -66 -2 -1 -174 -5 -383 -8 l-380 -5 393 -3 392 -2 0
480 0 480 -120 0 -120 0 -2 -357 -3 -358 -305 1 c-272 1 -316 4 -410 23 -369
77 -670 310 -835 646 -88 178 -125 338 -125 533 0 504 318 953 795 1125 136
49 256 68 455 73 l185 4 3 120 3 120 -173 -1 c-95 -1 -186 -4 -203 -6z"/>
<path d="M4780 6381 l0 -239 -317 -4 c-350 -5 -384 -10 -547 -78 -384 -160
-625 -573 -578 -988 45 -389 303 -702 672 -816 113 -35 184 -43 373 -45 l157
-2 0 361 0 360 240 0 241 0 -3 123 -3 122 -360 0 -360 0 -2 -360 -2 -359 -48
3 c-72 3 -170 29 -248 66 -182 84 -312 231 -381 430 -25 72 -28 94 -29 215 0
152 11 203 73 328 92 186 260 320 466 372 73 18 112 20 488 20 l408 0 0 365 0
365 -120 0 -120 0 0 -239z"/>
<path d="M5220 6501 l0 -121 618 -1 c339 0 631 -3 647 -5 84 -12 177 -38 233
-64 190 -89 314 -228 386 -427 29 -83 31 -96 31 -228 -1 -131 -3 -146 -32
-228 -69 -195 -193 -335 -374 -422 -129 -62 -169 -66 -620 -68 l-404 -2 -1
-420 c-1 -231 2 -395 6 -365 5 30 8 87 9 126 1 39 4 92 7 118 l7 46 88 0 c106
0 99 13 109 -195 6 -133 7 -115 8 148 l2 297 248 1 c136 0 270 3 297 5 417 34
761 316 867 712 29 111 36 309 13 427 -44 237 -188 463 -381 601 -84 60 -232
129 -334 155 -83 22 -102 23 -757 26 l-673 4 0 -120z"/>
<path d="M5222 5078 c1 -671 4 -993 9 -875 4 104 10 200 13 213 6 23 10 24 96
24 101 0 95 5 104 -90 2 -25 6 -52 8 -60 1 -8 5 350 8 795 l5 810 485 3 c542
3 558 1 629 -63 150 -136 76 -382 -124 -415 -33 -5 -216 -10 -407 -10 l-348 0
0 -121 0 -120 403 3 c376 4 406 5 464 25 87 29 140 62 200 125 111 119 156
278 122 440 -28 135 -126 260 -252 321 -39 20 -99 40 -131 46 -38 7 -281 11
-673 11 l-613 0 2 -1062z"/>
<path d="M4138 3743 c12 -2 30 -2 40 0 9 3 -1 5 -23 4 -22 0 -30 -2 -17 -4z"/>
</g>
</svg>
